<svg version="1" xmlns="http://www.w3.org/2000/svg" width="933.333" height="933.333" viewBox="0 0 700.000000 700.000000"><path d="M303.5 106.8l-45 17.7-78 .5-78 .5-.3 19.1-.2 19.1-6.8 2.3c-19.2 6.3-31.9 18.7-39.5 38.7l-2.2 5.8-.3 150.3c-.3 166.8-.7 156.3 6.4 171 4.1 8.6 14.9 20.2 22.6 24.4 19.5 10.7 42.5 12.7 79.8 7 33.2-5.1 39.9-5.7 69-5.7 30.1 0 38.8 1 59.6 6.4 26.4 7 44.8 20.2 54.9 39.4 2.2 4.2 4.2 7.7 4.5 7.7.3 0 2.3-3.5 4.5-7.7 10.1-19.2 28.5-32.4 54.9-39.4 21-5.5 29.5-6.4 60.1-6.4 28.9.1 40.4 1 68.5 5.6 34.6 5.7 58.7 3.9 77.5-5.9 9.5-4.9 20-15.5 24.8-25 7.2-14.4 6.8-4.7 6.5-171.7l-.3-150-2.2-5.8c-7.7-20.1-20.3-32.5-39.5-38.8l-6.8-2.2-.2-19.1-.3-19.1-76.7-.3-76.7-.2-46.1-18c-25.3-9.9-46.8-18-47.7-17.9-1 0-22 8-46.8 17.7zm90.3 7.3c22.2 8.6 40.6 15.9 40.8 16.2.3.3-.7 2.8-2.3 5.6l-2.8 5.1h-159l-2.8-5.1c-1.6-2.8-2.7-5.3-2.4-5.5.2-.2 19.2-7.8 42.3-16.8 27.1-10.7 42.6-16.3 43.9-15.9 1.1.3 20.1 7.7 42.3 16.4zm-132.1 27.6c2.6 4.5 2.9 6.4 6.4 42.2 2.1 20.7 3.8 37.7 3.8 37.8.1.2 4.2.3 9.2.3h9.1l-.3 51.7-.4 51.8 4.2.3 4.2.3.4-60.8c.3-53.6.5-61.4 2-65.6 3.1-8.9 8.1-17.2 14.2-23.2 6.1-6.2 14.8-12 16.4-11.1.5.3 1.4 3.6 2.1 7.3 1.2 6.2 1.2 6.8-.5 7.8-9.1 5.1-17.8 18.8-19.5 30.5-.5 3.6-1 30.9-1 60.7V326h74.1l-.3-60.3-.3-60.2-3.2-6.7c-3.6-7.7-10.1-15.1-15.5-17.9-2.1-1.1-3.8-2.5-3.8-3.1 0-1.2 3.1-13 3.6-13.6.1-.2 2.4.8 5.1 2.1 9.2 4.7 19 15.2 23.6 25.2 5.2 11.1 5 9 5.4 73.7l.4 60.8h7.9V222.1l8.3-.3 8.2-.3 4.4-36.5c4.4-36.2 4.4-36.5 7.8-42.2l3.4-5.8H586v361.9l-89.2.4c-98.1.4-93.5.1-110.5 6.7-11.9 4.6-20 9.7-28.7 18.3l-7.8 7.8-5.4-6c-8.3-9.1-21.9-17.5-35.4-21.7-15.5-4.9-11.9-4.7-106.2-5.1l-88.8-.4V137h144.9l2.8 4.7zM296 151c0 1.1-1.6 15.1-3.5 31s-3.5 29.7-3.5 30.5c0 1.1-1.2 1.5-5 1.5-3.3 0-5-.4-5-1.3 0-.6-1.4-14.7-3-31.2s-3-30.6-3-31.3c0-.9 3-1.2 11.5-1.2 10.8 0 11.5.1 11.5 2zm32.5 1.7c.4 2.2.3 3.9-.3 4.1-2.4.8-13.4 8-16.4 10.7-1.8 1.6-5 5-7.1 7.5l-3.9 4.5.6-3.5c.3-1.9 1-7.8 1.6-13 1.8-15.6.3-14 13.4-14h11.4l.7 3.7zm33.5-3c0 .4-1.6 6.5-3.6 13.5l-3.7 12.8h-6.3c-3.5 0-6.4-.2-6.4-.4 0-.6-5.1-23-5.6-24.9-.5-1.6.6-1.7 12.5-1.7 7.2 0 13.1.3 13.1.7zm32.4 2.5c1 6.4 2.6 24.1 2.2 24.5-.2.3-1.7-1.2-3.3-3.2-3.7-4.9-14.2-12.9-19.9-15.2-4.2-1.7-4.4-2-3.8-4.8.3-1.7.8-3.3 1.1-3.8.2-.4 5.5-.7 11.8-.7h11.4l.5 3.2zm31.6-2.7c0 1.3-7 58.3-7.5 61.2-.6 3.1-.8 3.3-4.9 3.3h-4.3l-1.2-9.3c-.7-5-2.2-19.7-3.5-32.5l-2.2-23.2h11.8c6.5 0 11.8.2 11.8.5zM196.5 511.1c79.3.4 94.9.8 100 2.1 16.3 4 31.5 12.4 39.8 21.9 2.4 2.7 6.5 8.9 9.2 13.6l4.8 8.6 4.5-8.9c8.7-16.8 24.5-28.8 45.7-34.6 7.9-2.2 8.9-2.3 102.5-2.8l94.5-.5.3-167.2.2-167.3 5.3 2.1c16.5 6.5 27.6 19.4 30.7 35.8.6 3.5 1 56.4 1 150.5 0 125.9-.2 145.9-1.5 151.5-4.4 18.4-17.4 30.7-38.3 36.2-9.7 2.6-31.9 2.8-46.7.5-23.8-3.8-29.9-4.6-45.4-6-20.4-2-48.6-2-65.1-.1-37.2 4.2-63.2 14.7-80.8 32.9l-7.2 7.4-7.2-7.4c-14.7-15.2-34.5-24.7-62.9-30.3-31.3-6.1-73.9-5.4-118.9 2-18.5 3-32.9 4-44.2 2.9-27.4-2.6-45.1-16-50.3-38.2-1.3-5.4-1.5-26.9-1.5-151.4 0-99.6.3-146.9 1.1-151 2.8-15.4 13.2-27.9 28.6-34.4l6.8-2.9.5 167.2.5 167.2 94 .6zM345 251.5V318h-24.5l.3-54.1c.3-51.1.4-54.4 2.3-59.4 2.9-7.7 7.1-13 13.1-16.5 9.7-5.5 8.8-12 8.8 63.5zm15.6-64.6c5.6 2.6 11.2 8.4 14.3 15l2.6 5.6.3 55.2.2 55.3h-24v-66.5c0-52.5.3-66.5 1.3-66.5.6 0 3 .9 5.3 1.9z"/><path d="M324.8 118.4c-12.5 4.5-23 8.5-23.4 8.9-.4.4 21.5.7 48.6.7 27.3 0 49-.4 48.4-.9-1.5-1.3-46.8-17.1-49-17-1 .1-12.1 3.8-24.6 8.3zM137 156.3c0 .7 1.3 5.6 3 10.7 1.6 5.2 3 9.8 3 10.2 0 .4-1.2.8-2.7 1l-2.8.3-.3 46.3-.2 46.2 21.2-.2 21.3-.3v-92l-3.8-.3c-3.2-.3-3.7-.6-3.2-2 3.3-8.2 7.5-19.5 7.5-20.3 0-.5-9.2-.9-21.5-.9-17 0-21.5.3-21.5 1.3zm31 8.5c0 .4-1 3.5-2.3 6.7l-2.3 6h-11.8l-1.8-6c-1-3.3-1.8-6.3-1.8-6.8 0-.4 4.5-.7 10-.7s10 .4 10 .8zm3 60.2v38h-26v-76h26v38zM204 156.7c0 1 1.4 6.1 3 11.3 1.7 5.1 3 9.5 3 9.7 0 .2-1.3.3-3 .3h-3v93h42v-93h-3.5c-1.9 0-3.5-.2-3.5-.5 0-.2 1.8-5 4-10.6 2.1-5.6 3.7-10.6 3.4-11.1-.3-.4-9.9-.8-21.5-.8-19.2 0-20.9.1-20.9 1.7zm30.4 9.5c-.3 1.3-1.5 4.3-2.4 6.8l-1.8 4.5h-11.5l-1.8-5c-3.1-8.7-3.3-8.5 8.2-8.5 9.9 0 10 0 9.3 2.2zM238 225v38h-26v-76h26v38zM452.8 155.5c-.3.3 1 5.4 2.8 11.3 1.9 5.9 3.4 10.8 3.4 10.9 0 .2-1.3.3-3 .3h-3v93h42v-93h-3.5c-1.9 0-3.5-.2-3.5-.5 0-.2 1.8-5 4-10.6 2.1-5.6 3.7-10.6 3.4-11.1-.6-.9-41.7-1.2-42.6-.3zm31.2 9c0 .3-1.2 3.4-2.6 7l-2.6 6.5h-11.4l-2.1-7-2-7h10.3c5.7 0 10.4.2 10.4.5zm3 60.5v38h-26v-76h26v38zM519.7 155.7c-.3.5 1 5.5 2.7 11.3l3.3 10.5-2.9.3-2.8.3V271h42v-93h-3.5c-1.9 0-3.5-.4-3.5-.8s1.7-5.3 3.9-10.8c2.1-5.4 3.7-10.2 3.4-10.7-.2-.4-9.8-.7-21.3-.7s-21.1.3-21.3.7zm30.8 10c-.4 1-1.6 4.2-2.7 7l-2.1 5.3H540c-5.2 0-5.8-.2-6.4-2.3-.3-1.2-1.2-4.3-2-7l-1.5-4.7h10.6c9.6 0 10.5.1 9.8 1.7zM554 225v38h-26v-76h26v38zM188.1 353c-14.8 3.1-25 8.8-34.8 19.3-24.3 26.1-21 70.9 6.8 91.9 23.3 17.7 59.2 16.7 84.7-2.3l5.2-4V407h-52v19h31.1l-.3 11.2-.3 11.3-5 2.7c-5.8 3.2-16.3 5.8-23.2 5.8-5.8 0-14.9-2.2-20.1-4.9-19.8-10.3-26.5-41.4-13.2-62.1 4.2-6.5 9-10.6 16.7-14.3 5.6-2.6 7.5-2.9 15.3-2.9 12 0 20 2.7 29.7 10l3.3 2.4 2.7-3.3c1.6-1.8 4.5-5.3 6.6-7.7 2-2.4 3.7-4.7 3.7-5.2 0-1.2-8.6-7.3-14.6-10.3-2.8-1.4-7.9-3.3-11.4-4.2-7.5-2-24.8-2.8-30.9-1.5zM277 414.4V475h21v-39h16.6c11.9 0 18.4-.4 22.8-1.6 20.5-5.3 32.6-19.8 32.6-39.3 0-18.2-10-32.1-27.7-38.1-6.4-2.2-8.7-2.4-36-2.8l-29.3-.4v60.6zm53.1-39.4c21.6 4 24.4 32 3.9 39.6-3.2 1.1-9.2 1.8-20.2 2.1l-15.8.6V374h13.4c7.3 0 15.8.5 18.7 1zM419 396.2c0 27.5-.4 43.7-1.1 46.3-2.5 9-8.6 13.5-18.1 13.5-6.8-.1-12.3-2.6-18.4-8.4-2.6-2.5-5-4.6-5.4-4.6-.3 0-3.7 3.1-7.5 7l-6.9 7 4.9 5.1c8.3 8.5 15.6 12.2 27.3 13.9 17.5 2.4 35.7-5.3 42.2-18 4.8-9.4 5-11.7 5-59.2V354h-22v42.2zM470 414.5V475h21v-38.8l18.8-.4c16.3-.3 19.5-.7 25.2-2.7 18.1-6.3 28-20 28-38.7 0-21.3-14.3-36.4-37.5-39.4-3.8-.5-17.9-1-31.2-1H470v60.5zm58.5-38.1c5.2 2.2 8.4 5.2 10.6 10.1 3.8 8.2 1.5 18.1-5.4 24.2-5.2 4.5-9.1 5.4-26.9 6l-15.8.6v-43.5l16.8.4c12.9.3 17.6.8 20.7 2.2z"/></svg>